<svg width="28" height="30" viewBox="0 0 28 30" fill="none" xmlns="http://www.w3.org/2000/svg">
<path d="M14 0C6.26613 0 0 6.62216 0 14.7955C0 22.9688 6.26613 29.5909 14 29.5909C21.7339 29.5909 28 22.9688 28 14.7955C28 6.62216 21.7339 0 14 0ZM20.8758 10.1361L18.5782 21.5787C18.4089 22.3901 17.9516 22.5869 17.3137 22.2051L13.8137 19.4787L12.1258 21.1969C11.9395 21.3937 11.7815 21.5608 11.4202 21.5608L11.6685 17.7963L18.1548 11.6037C18.4371 11.3412 18.0927 11.192 17.7202 11.4545L9.70403 16.7881L6.24919 15.6486C5.49839 15.398 5.48145 14.8551 6.40726 14.4733L19.9048 8.97273C20.5315 8.73409 21.079 9.13381 20.8758 10.1361Z" fill="black"/>
</svg>
